<mxfile host="app.diagrams.net" modified="2023-08-20T15:53:00.382Z" agent="Mozilla/5.0 (Windows NT 10.0; Win64; x64) AppleWebKit/537.36 (KHTML, like Gecko) Chrome/116.0.0.0 Safari/537.36" etag="_jKsPa_r6rC5-YTsIX3p" version="21.6.8" type="device">
  <diagram name="Страница — 1" id="Y9XFmytYKOozws4Vm1hj">
    <mxGraphModel dx="1728" dy="925" grid="1" gridSize="10" guides="1" tooltips="1" connect="1" arrows="1" fold="1" page="1" pageScale="1" pageWidth="827" pageHeight="1169" math="0" shadow="0">
      <root>
        <mxCell id="0" />
        <mxCell id="1" parent="0" />
        <mxCell id="shYyjLh4EtHOCK-2yJdz-1" value="" style="rounded=0;whiteSpace=wrap;html=1;fillColor=#dae8fc;strokeColor=#6c8ebf;dashed=1;dashPattern=12 12;" vertex="1" parent="1">
          <mxGeometry x="150" y="180" width="730" height="570" as="geometry" />
        </mxCell>
        <mxCell id="shYyjLh4EtHOCK-2yJdz-2" value="&lt;font style=&quot;font-size: 18px;&quot;&gt;K8 cluster&lt;/font&gt;" style="text;html=1;strokeColor=none;fillColor=none;align=center;verticalAlign=middle;whiteSpace=wrap;rounded=0;" vertex="1" parent="1">
          <mxGeometry x="150" y="190" width="100" height="30" as="geometry" />
        </mxCell>
        <mxCell id="shYyjLh4EtHOCK-2yJdz-22" style="edgeStyle=orthogonalEdgeStyle;rounded=0;orthogonalLoop=1;jettySize=auto;html=1;exitX=0.5;exitY=1;exitDx=0;exitDy=0;entryX=0.4;entryY=0.1;entryDx=0;entryDy=0;entryPerimeter=0;" edge="1" parent="1" source="shYyjLh4EtHOCK-2yJdz-3" target="shYyjLh4EtHOCK-2yJdz-21">
          <mxGeometry relative="1" as="geometry" />
        </mxCell>
        <mxCell id="shYyjLh4EtHOCK-2yJdz-3" value="" style="rounded=0;whiteSpace=wrap;html=1;dashed=1;dashPattern=8 8;fillColor=#f5f5f5;fontColor=#333333;strokeColor=#666666;" vertex="1" parent="1">
          <mxGeometry x="204" y="225" width="276" height="500" as="geometry" />
        </mxCell>
        <mxCell id="shYyjLh4EtHOCK-2yJdz-4" value="&lt;font style=&quot;font-size: 15px;&quot;&gt;Mistral Api&lt;/font&gt;" style="rounded=1;whiteSpace=wrap;html=1;fillColor=#d5e8d4;strokeColor=#82b366;" vertex="1" parent="1">
          <mxGeometry x="279.5" y="285" width="126" height="40" as="geometry" />
        </mxCell>
        <mxCell id="shYyjLh4EtHOCK-2yJdz-5" value="&lt;font style=&quot;font-size: 15px;&quot;&gt;Mistral Notifier&lt;/font&gt;" style="rounded=1;whiteSpace=wrap;html=1;fillColor=#d5e8d4;strokeColor=#82b366;" vertex="1" parent="1">
          <mxGeometry x="278.5" y="470" width="127" height="40" as="geometry" />
        </mxCell>
        <mxCell id="shYyjLh4EtHOCK-2yJdz-6" value="&lt;font style=&quot;font-size: 15px;&quot;&gt;Mistral Engine&lt;/font&gt;" style="rounded=1;whiteSpace=wrap;html=1;fillColor=#d5e8d4;strokeColor=#82b366;" vertex="1" parent="1">
          <mxGeometry x="280.5" y="345" width="125" height="40" as="geometry" />
        </mxCell>
        <mxCell id="shYyjLh4EtHOCK-2yJdz-7" value="&lt;font style=&quot;font-size: 15px;&quot;&gt;Mistral Executor&lt;/font&gt;" style="rounded=1;whiteSpace=wrap;html=1;fillColor=#d5e8d4;strokeColor=#82b366;" vertex="1" parent="1">
          <mxGeometry x="280.5" y="405" width="125" height="40" as="geometry" />
        </mxCell>
        <mxCell id="shYyjLh4EtHOCK-2yJdz-8" value="&lt;font style=&quot;font-size: 15px;&quot;&gt;Mistral Monitoring&lt;/font&gt;" style="rounded=1;whiteSpace=wrap;html=1;fillColor=#d5e8d4;strokeColor=#82b366;" vertex="1" parent="1">
          <mxGeometry x="279.5" y="535" width="126" height="40" as="geometry" />
        </mxCell>
        <mxCell id="shYyjLh4EtHOCK-2yJdz-10" value="&lt;font style=&quot;font-size: 15px;&quot;&gt;Mistral Operator&lt;/font&gt;" style="rounded=1;whiteSpace=wrap;html=1;fillColor=#d5e8d4;strokeColor=#82b366;" vertex="1" parent="1">
          <mxGeometry x="280.5" y="625" width="125" height="40" as="geometry" />
        </mxCell>
        <mxCell id="shYyjLh4EtHOCK-2yJdz-11" value="&lt;font style=&quot;font-size: 15px;&quot;&gt;Node 1&lt;/font&gt;" style="text;html=1;strokeColor=none;fillColor=none;align=center;verticalAlign=middle;whiteSpace=wrap;rounded=0;" vertex="1" parent="1">
          <mxGeometry x="218" y="240" width="60" height="30" as="geometry" />
        </mxCell>
        <mxCell id="shYyjLh4EtHOCK-2yJdz-23" style="edgeStyle=orthogonalEdgeStyle;rounded=0;orthogonalLoop=1;jettySize=auto;html=1;exitX=0.5;exitY=1;exitDx=0;exitDy=0;entryX=0.625;entryY=0.2;entryDx=0;entryDy=0;entryPerimeter=0;" edge="1" parent="1" source="shYyjLh4EtHOCK-2yJdz-13" target="shYyjLh4EtHOCK-2yJdz-21">
          <mxGeometry relative="1" as="geometry" />
        </mxCell>
        <mxCell id="shYyjLh4EtHOCK-2yJdz-13" value="" style="rounded=0;whiteSpace=wrap;html=1;dashed=1;dashPattern=8 8;fillColor=#f5f5f5;fontColor=#333333;strokeColor=#666666;" vertex="1" parent="1">
          <mxGeometry x="550" y="225" width="276" height="500" as="geometry" />
        </mxCell>
        <mxCell id="shYyjLh4EtHOCK-2yJdz-14" value="&lt;font style=&quot;font-size: 15px;&quot;&gt;Mistral Api&lt;/font&gt;" style="rounded=1;whiteSpace=wrap;html=1;fillColor=#d5e8d4;strokeColor=#82b366;" vertex="1" parent="1">
          <mxGeometry x="625.5" y="285" width="126" height="40" as="geometry" />
        </mxCell>
        <mxCell id="shYyjLh4EtHOCK-2yJdz-15" value="&lt;font style=&quot;font-size: 15px;&quot;&gt;Mistral Notifier&lt;/font&gt;" style="rounded=1;whiteSpace=wrap;html=1;fillColor=#d5e8d4;strokeColor=#82b366;" vertex="1" parent="1">
          <mxGeometry x="624.5" y="470" width="127" height="40" as="geometry" />
        </mxCell>
        <mxCell id="shYyjLh4EtHOCK-2yJdz-16" value="&lt;font style=&quot;font-size: 15px;&quot;&gt;Mistral Engine&lt;/font&gt;" style="rounded=1;whiteSpace=wrap;html=1;fillColor=#d5e8d4;strokeColor=#82b366;" vertex="1" parent="1">
          <mxGeometry x="626.5" y="345" width="125" height="40" as="geometry" />
        </mxCell>
        <mxCell id="shYyjLh4EtHOCK-2yJdz-17" value="&lt;font style=&quot;font-size: 15px;&quot;&gt;Mistral Executor&lt;/font&gt;" style="rounded=1;whiteSpace=wrap;html=1;fillColor=#d5e8d4;strokeColor=#82b366;" vertex="1" parent="1">
          <mxGeometry x="626.5" y="405" width="125" height="40" as="geometry" />
        </mxCell>
        <mxCell id="shYyjLh4EtHOCK-2yJdz-18" value="&lt;font style=&quot;font-size: 15px;&quot;&gt;Mistral Monitoring&lt;/font&gt;" style="rounded=1;whiteSpace=wrap;html=1;fillColor=#d5e8d4;strokeColor=#82b366;" vertex="1" parent="1">
          <mxGeometry x="625.5" y="535" width="126" height="40" as="geometry" />
        </mxCell>
        <mxCell id="shYyjLh4EtHOCK-2yJdz-20" value="&lt;font style=&quot;font-size: 15px;&quot;&gt;Node 2&lt;/font&gt;" style="text;html=1;strokeColor=none;fillColor=none;align=center;verticalAlign=middle;whiteSpace=wrap;rounded=0;" vertex="1" parent="1">
          <mxGeometry x="564" y="240" width="60" height="30" as="geometry" />
        </mxCell>
        <mxCell id="shYyjLh4EtHOCK-2yJdz-21" value="&lt;font style=&quot;font-size: 17px;&quot;&gt;HA Postgres &amp;amp; RabbitMQ&lt;/font&gt;" style="ellipse;shape=cloud;whiteSpace=wrap;html=1;fillColor=#e1d5e7;strokeColor=#9673a6;" vertex="1" parent="1">
          <mxGeometry x="367.5" y="800" width="295" height="120" as="geometry" />
        </mxCell>
      </root>
    </mxGraphModel>
  </diagram>
</mxfile>
